# xmcd CD database file generated by GCD 2.91
# 
# Track frame offsets:
#       111915
#       123190
#       135570
#       143620
#       160712
#       167775
#       183457
#       204745
#       214750
#       224172
#       231742
#       241212
#       265655
#       279402
#       291947
#       304617
#       325450
# 
# Disc length: 4348 seconds
# 
# Revision: 3
# Processed by: cddbd v1.4b41PL1 Copyright (c) Steve Scherf et al.
# Submitted via: GCD 2.91
# 
DISCID=190b2811
DTITLE=Kiss My Jazz - In A Service Station
DYEAR=1900
DGENRE=
TTITLE0=A Truckdriver Song
TTITLE1=Still Losers
TTITLE2=Easy Money
TTITLE3=Small Town Lovers Stroll
TTITLE4=This Machine
TTITLE5=A Remarkable Confession
TTITLE6=Sweetheart Blushes
TTITLE7=Elton Is A Truck
TTITLE8=Until The Ufo Is Out Of Sight
TTITLE9=Walk Like A Truck
TTITLE10=one of these BLACKOUTs
TTITLE11=My Finger On Your Trigger
TTITLE12=In Ruins
TTITLE13=The Big Splash
TTITLE14=Crazy Little Baby
TTITLE15=Truckdriving Song
TTITLE16=
EXTD=
EXTT0=
EXTT1=
EXTT2=
EXTT3=
EXTT4=
EXTT5=
EXTT6=
EXTT7=
EXTT8=
EXTT9=
EXTT10=
EXTT11=
EXTT12=
EXTT13=
EXTT14=
EXTT15=
EXTT16=
PLAYORDER=
